<svg xmlns="http://www.w3.org/2000/svg" width="192" height="192" viewBox="0 0 192 192" version="1.1"><path d="M 92 87.601 L 92 127 81.500 127 L 71 127 71 87.961 L 71 48.922 62.250 49.211 L 53.500 49.500 53.238 88.250 L 52.977 127 38.944 127 L 24.912 127 25.206 134.250 L 25.500 141.500 71 141.788 C 124.867 142.129, 135.906 141.421, 145.674 136.999 C 162.564 129.354, 169.849 114.922, 168.765 91.257 C 167.989 74.315, 163.324 64.739, 152 56.837 C 142.956 50.526, 136.646 49.214, 112.750 48.672 L 92 48.202 92 87.601 M 110 94.991 L 110 127.283 120.750 126.704 C 126.662 126.386, 133.104 125.649, 135.065 125.067 C 139.743 123.678, 146.574 117.756, 149.013 112.975 C 152.051 107.020, 153.354 96.287, 152.055 87.917 C 149.425 70.968, 141.085 64.612, 119.750 63.298 L 110 62.698 110 94.991" stroke="none" fill="#f3f6fb" fill-rule="evenodd"/><path d="M -0 96.005 L -0 192.010 96.250 191.755 L 192.500 191.500 192.755 95.750 L 193.010 -0 96.505 -0 L 0 0 -0 96.005 M 0.480 96.500 C 0.480 149.300, 0.602 170.753, 0.750 144.174 C 0.898 117.595, 0.898 74.395, 0.750 48.174 C 0.601 21.953, 0.480 43.700, 0.480 96.500 M 92 87.601 L 92 127 81.500 127 L 71 127 71 87.961 L 71 48.922 62.250 49.211 L 53.500 49.500 53.238 88.250 L 52.977 127 38.944 127 L 24.912 127 25.206 134.250 L 25.500 141.500 71 141.788 C 124.867 142.129, 135.906 141.421, 145.674 136.999 C 162.564 129.354, 169.849 114.922, 168.765 91.257 C 167.989 74.315, 163.324 64.739, 152 56.837 C 142.956 50.526, 136.646 49.214, 112.750 48.672 L 92 48.202 92 87.601 M 110 94.991 L 110 127.283 120.750 126.704 C 126.662 126.386, 133.104 125.649, 135.065 125.067 C 139.743 123.678, 146.574 117.756, 149.013 112.975 C 152.051 107.020, 153.354 96.287, 152.055 87.917 C 149.425 70.968, 141.085 64.612, 119.750 63.298 L 110 62.698 110 94.991" stroke="none" fill="#0564e4" fill-rule="evenodd"/></svg>